<svg xmlns="http://www.w3.org/2000/svg" fill="none" viewBox="0 0 2083 642"><path d="m1951 110 9 1c32 3 72 15 98 36l1 1 13 14 1 2a48 48 0 0 1 7 17l1 10v8l1 4v147l1 45v64c0 9 0 19-2 28v1c-3 24-12 46-27 65v1a155 155 0 0 1-42 34l-1 1c-29 15-64 22-108 25h-9c-36-1-36-1-50-3l-6-1h-1a71 71 0 0 0-4-1l-22-5-1-1-19-6-1-1c-15-7-28-17-34-33a61 61 0 0 1-2-4v-1a65 65 0 0 1-2-19v-1c1-9 3-16 6-24l1-1c3-7 8-15 15-18l5 2 3 1 1 1 21 10h2c17 7 36 11 54 13l1 1 20 1h2l17-1h2c20-3 42-8 57-22l1-1c4-4 7-8 8-12l2-3 2-4v-1c2-8 3-15 3-23l-2 2-2 1-5 2c-23 16-57 15-84 14h-7l-2-1c-4 0-9 0-14-2l-9-2c-30-6-61-19-80-44l-2-2-9-12v-1c-5-6-9-13-12-19l-1-1-2-6h-1c-9-20-13-42-15-63l-1-2c-2-19-1-38 0-58v-1l2-16 1-2 1-3 1-5v-3l1-2 2-8 1-3 3-8 1-3 1-1 1-4 6-11 1-1 13-20 1-1 10-11a35 35 0 0 0 2-3l4-3 2-2 7-5 4-3a139 139 0 0 1 27-17l5-2 9-3c31-12 66-15 118-12zm-44 89h-2c-17 3-34 11-46 25l-1 1c-20 24-20 59-17 89 2 20 8 41 24 55l7 5c20 12 45 14 67 10 10-3 23-6 29-16 3-5 5-10 5-16v-61h-1v-61a31 31 0 0 0-4-16c-3-6-9-11-16-13-9-3-19-4-29-4h-1l-15 2zM572 13l1 1 1 1c8 9 10 23 10 34v9l1 79h1l5-2 2-1c17-6 33-10 51-12h2c30-2 62 3 90 16l1 1c12 5 23 13 32 21l1 1 8 7 2 2c5 5 9 10 13 17l1 2h1a188 188 0 0 0 3 5c7 10 11 21 15 32l1 1c5 15 8 31 10 47v2c2 19 1 39-1 58v1c-3 33-16 65-37 91l-1 1-8 9h-1a79 79 0 0 1-9 9c-9 8-21 14-32 20h-1c-15 8-35 15-52 17l-8 1-13 2h-12c-16 1-32 0-48-2h-3l-19-4-5-1-30-10h-1a469 469 0 0 1-16-8h-1a88 88 0 0 1-6-4l-4-2-9-6-1-1-4-3-1-1c-10-8-19-22-21-36V274l-1-1V120l-1-44V8l3-1 1-1 7-1 1-1c25-4 61-9 82 9zm20 207h-1c-6 7-7 16-7 24v60h1v62c0 9 2 17 8 24 3 3 8 5 12 7h1c9 3 19 4 29 4h1c22 0 41-7 57-22 14-14 20-34 22-53v-1c2-15 2-31 0-46v-3l-4-19-1-1c-3-12-9-21-17-30l-1-1a73 73 0 0 0-51-20c-17 0-37 3-49 15zm933-103h8l27 1h2a203 203 0 0 1 57 16h1a163 163 0 0 1 51 39l4 5 3 4 11 18 2 2 5 10 1 2 2 5 1 1c5 14 9 28 11 42v2a280 280 0 0 1 3 18c3 36-2 75-20 113l-1 2a149 149 0 0 1-18 27v1a124 124 0 0 1-31 28l-2 2c-27 19-60 28-93 30h-1a219 219 0 0 1-45-2h-3c-18-3-35-7-52-15h-1c-9-4-17-10-26-15v-1l-7-5-2-1-8-8h-1l-8-9-1-2c-9-11-17-22-23-35v-1c-11-20-15-43-17-65l-1-5v-4l-1-2 1-2a47 47 0 0 0 0-3v-21l-1-2 1-3v-8l2-13v-3c4-28 16-55 33-77l1-2 14-16 2-2 1-1 1-1 2-2c2 0 2-1 3-2l5-4 1-1 3-2 3-1 4-3 4-3 16-9 3-1 4-2 2-1 12-4h1l6-2c16-4 33-7 49-7zm-32 108a102 102 0 0 1-3 3l-4 4-2 2c-17 19-28 46-29 71v2c-1 28 10 61 29 81 10 10 22 15 36 16 19 0 38-13 52-26l3-4 4-3 1-1 1-1c7-6 12-14 17-23v-1a118 118 0 0 0-10-126h-1c-8-11-18-19-32-21-24-2-45 12-62 27zM912 117h1c15 0 34 2 45 13 4 5 8 12 8 18l1 1v1a44 44 0 0 0 0 2l1 10v41l1 16v114c0 18 2 37 14 51l1 1c11 11 28 15 43 15l7 1h1c13 0 26-2 38-7h1l6-3h2l2-3v-34l-1-18V159l-1-24v-10l1-2 6-1 1-1 15-2h1l2-1h5l10-1h8c12-1 26 0 37 6h1a31 31 0 0 1 17 21l1 1 2 11v1l1 24v116a38 38 0 0 1 0 1v100c0 18-2 33-15 46-6 6-13 10-21 15h-1a181 181 0 0 1-71 23l-12 1-4 1h-4l-26 1h-1l-29-1h-2c-6 0-11 0-16-2h-2l-3-1-10-2c-6 0-12-2-18-4l-5-2h-1l-2-1c-3 0-5-1-7-3l-3-1c-6-2-10-5-14-8l-8-5-5-4-2-1-1-1-2-1-4-4-1-1a67 67 0 0 1-7-8c-3-2-4-5-6-8l-2-1c-3-5-7-11-9-17v-1l-1-1-1-3-3-6-2-8-1-6-2-5-2-13v-2c-3-15-1-32-1-47v-89l-1-50v-55l3-1h1c15-3 30-6 46-5zM1287 3h1l13 4 1 1h1l3 1c6 4 11 11 13 18l2 6v1c2 9 2 18 2 27v144a47 47 0 0 1 0 2l1 16v152l1 46v55l-1 3a15 15 0 0 1-3 1h-1l-2 1h-2c-11 3-22 4-33 4h-1c-16 1-38 1-51-11l-2-2-1-1c-9-10-10-25-10-39v-20l-1-76v-95l-1-28V7l6-1 2-1 27-4h1c11-1 23 0 35 2zM336 181l4 2 1 1 1 1 2 1 3 2 1 1c11 8 23 17 31 28l1 1c9 10 15 23 18 36 2 10 2 21-1 30v1l-2 7v1c-5 14-12 25-20 36l-3 5-9 9-1 2-3 3-5 4-3 3-1 2-8 7-2 2a105 105 0 0 1-5 4l-3 3-9 7-2 1-15 11-4 3-11 7-2 2-12 8-3 1-19 12h-1l-1 1-15 8-7 4-10 6-8 6-12 7-3 2-28 19-5 3-12 8v1l-13 9-5 4-8 6-4 3-8 7-3 2-8 6-7 5-5 5-4 3-8 6a146 146 0 0 1-15 12 144 144 0 0 1-4 4l-8 7-3 2-3 3-4 4-3 2-4 4-3 2-4 4-3 2-4 4-3 2-5 5-2 2-1 1-3 2a118 118 0 0 1-7-41v-11l-1-19v-14l2-6 1-1 1-1 1-1 5-5 3-3 2-2 1-1c4-5 4-5 6-5v-1l2-1 3-3 6-5 5-4 2-2 5-3 6-5 6-5 15-11 4-3 1-1 4-3 13-9 3-2 7-5 1-1 29-19 4-2 16-11 5-3 1-1 10-6 6-4 24-16 4-3 11-8 5-3 2-2 5-3 19-13 3-3 9-6 4-3 8-6 1-1a187 187 0 0 0 15-12l10-11 1-1 1-1 4-4 5-7 3-4 9-16v-1l1-1v-1l2-3 1-3a103 103 0 0 0 10-46h1v-8l1-1v-13l1-7zM192 67l3 1c11 1 23 2 33 5h1c31 7 63 19 82 45l1 1c11 14 17 31 20 48v1c4 17-1 37-6 53a60 60 0 0 0-1 4 10 10 0 0 1-2 3l-2 5a113 113 0 0 1-21 31l-6 8-2 1-2 3-4 3-3 3-1 1-7 7-4 3-4 3-2 2-4 3-7 5-4 3-5 4a147 147 0 0 0-12 8l-7 4-11 7-4 3-16 9-5 3-3 2-4 2-13 8-12 7-3 2-17 9-6 4-3 2-2 1-13 8h-1l-1 1-4 2-6 4-14 8-8 5-14 8-3 2-15 9-1 1-5 4-2 1-12 9-5 4-6 4-2 2-4 2-1 1-1 1-4 1 1-8 1-1v-3h1l1-1v-2l1-5 1-1 1-3 4-14 1-4 5-13 2-5 3-8 6-10 3-4 1-1v-1l4-6 1-1a121 121 0 0 1 13-16 73 73 0 0 1 12-11l3-3a99 99 0 0 1 5-5 131 131 0 0 0 3-2l8-6 4-4a214 214 0 0 1 26-18l2-2h1l1-1 2-1 3-2 8-5 5-3h1l1-1 5-2v-1l2-1 1-1 1-1h1l6-2v-1l4-2h2a39 39 0 0 0 0-2l2-1h1l1-1 1-1 3-1 1-1 14-7 4-3 16-8 14-8 15-7 16-9 4-2h1l6-4 13-7a343 343 0 0 1 36-21l2-2 18-11 1-1 1-2-4-1-1-1-6-3-9-5-6-3-18-8-1-1-2-1-6-2c-11-6-22-9-33-13l-3-1h-1l-12-4c-10-4-19-7-29-9h-1l-8-3c-14-3-14-3-20-6l-1-1-18-12-1-1-8-8-2-2c-6-6-16-19-16-28l18-1h3l45 1z" fill="#1b4f88"/><path d="M191 2h2l27 3 6 1 38 5 2 1 20 4 1 1c27 7 55 18 76 37l1 1c11 12 21 29 21 46v2l-1 16v1l-5 14-1 1a96 96 0 0 1-18 25l-8 8-3 2-6 6-2 2h-1a76 76 0 0 0-2 2l-1 1h-2v-11l-2-18v-1l-5-16-1-2a81 81 0 0 0-14-24c-5-8-13-16-20-21l-2-1c-9-7-19-12-28-17a61 61 0 0 1-4-2c-4-3-8-4-13-5a185 185 0 0 1-5-2l-28-8-3-1-19-3-7-2-14-2h-1l-34-2h-16a175 175 0 0 1-3 0h-1l-3-2v-2l-5-8-7-15-2-6-1-1-1-2-1-3V2c32-1 64-2 96 0z" fill="#efaa26"/><path d="m192 67 3 1c11 1 23 2 33 5h1c31 7 63 19 82 45l1 1c11 14 17 31 20 48v1a60 60 0 0 1 1 13c-4-1-9-4-13-7l-8-4-6-3-18-8-1-1-2-1-6-2c-11-6-22-9-33-13l-3-1h-1l-12-4c-10-4-19-7-29-9h-1l-8-3c-14-3-14-3-20-6l-1-1-18-12-1-1-8-8-2-2c-6-6-16-19-16-28l18-1h3l45 1z" fill="#f0ab26"/><path d="M740 571a27 27 0 0 1 9 21v20c0 8-1 15-7 22h-1c-3 5-10 8-15 8-10 0-18-1-25-8-2-2-4-3-4-6l2-3 5-1c2 0 3 2 4 3 2 3 6 5 10 5 6 1 10 0 15-3 3-3 5-8 6-13v-6l-1 1c-4 5-8 8-14 9-8 1-14-1-20-5-5-4-8-11-9-18-1-8 1-16 6-23 10-10 27-11 39-3zm-30 9c-4 4-5 9-5 15l1 6 1 1c2 4 5 7 9 8 5 2 10 1 14-1s7-6 9-10c1-6 0-11-2-16-3-4-6-6-10-8-6-1-12 0-17 5zm-207-14h1c5 0 9 2 13 6l1 1 1-1c6-5 13-7 21-6 4 1 7 3 10 7s4 8 4 13v29l-1 4-4 1-4-1-1-6v-23c0-6 0-6-3-11-3-3-6-4-9-4-3 1-6 2-8 5l-2 8v26l-2 5-5 1-4-3v-26c0-7 0-7-3-13-2-2-5-3-8-3-3 1-6 2-7 4-3 3-4 5-4 9v26l-1 5-4 1c-2 0-3 0-4-2-2-1-1-3-1-5v-40c0-3 0-4 2-6l5-1 3 4h1l2-1v-1c4-2 7-2 11-2zm877-22 2 4v26l1-1 1-1 1-1 4-2v-1l3-1h1c5-2 13-1 18 1 6 3 11 9 13 16 2 8 2 16-2 24-4 6-10 10-17 12-7 1-15 1-21-3-7-5-11-11-13-18v-49c0-2 0-4 2-6h7zm5 37c-3 4-4 10-4 15 1 5 3 9 7 12 5 3 9 4 15 3 5-2 9-5 11-10s2-10 0-15-5-8-10-10c-7-2-14 0-19 5zm243-9c5 5 9 11 9 18v21l-1 8-5 1-4-2v-6l-1 1-1 1-1 1c-4 4-10 5-16 5-7 0-13-2-18-7-3-4-5-7-6-11v-1c-2-8-1-16 3-23 4-6 10-10 17-12 8-2 18 0 24 6zm-30 8c-4 4-5 8-5 14 0 5 2 10 6 13 3 3 8 4 12 4 5 0 9-2 12-6 4-5 5-10 4-16-1-5-4-9-8-12-7-4-15-3-21 3zm-116-8c5 5 9 11 9 18a168 168 0 0 1 0 5v16l-1 8-5 1-4-2v-5a24 24 0 0 1-1-1v1l-1 1-1 1c-4 4-11 5-17 5s-12-2-17-7c-3-4-5-7-6-11v-1c-2-8-1-16 3-23 4-6 10-10 17-12 8-2 18 0 24 6zm-30 8c-4 4-5 8-5 14 0 5 2 10 6 13 3 3 8 4 12 4 5 0 9-2 12-6 4-5 5-10 4-16-1-5-4-9-8-12-7-4-15-3-21 3zm-310-8c5 5 8 11 8 18l1 5v16c0 6 0 6-2 8l-5 1-3-2-1-4v-2a44 44 0 0 1-1 1l-1 1-1 1c-4 4-10 5-16 5-7 0-13-2-18-7l-6-11v-1c-2-8-1-16 3-23a28 28 0 0 1 42-6zm-30 8c-4 4-6 8-6 14 0 5 2 10 6 13s8 4 13 4c4 0 8-2 12-6 3-5 4-10 3-16-1-5-3-9-8-12-7-4-15-3-20 3zm-135-8c5 5 9 11 9 18v21l-1 8-5 1-4-2v-5l-1-1v1l-1 1-1 1c-4 4-11 5-17 5s-12-2-17-7c-3-4-5-7-6-11v-1c-2-8-1-16 3-23 4-6 10-10 17-12 8-2 18 0 24 6zm-30 8c-4 4-5 8-5 14 0 5 2 10 6 13 3 3 8 4 12 4 5 0 9-2 12-6 4-5 5-10 4-16-1-5-4-9-8-12-7-4-15-3-21 3zm-141-8c5 5 8 11 9 18v21l-1 8-6 1-3-2-1-4v-2l-1 1-1 1v1c-5 4-11 5-17 5-7 0-13-2-18-7l-5-11-1-1c-2-8 0-16 4-23 3-6 9-10 16-12 9-2 18 0 25 6zm-30 8c-4 4-6 8-6 14 1 5 3 10 6 13 4 3 8 4 13 4 4 0 9-2 12-6 3-5 4-10 4-16-2-5-4-9-9-12-6-4-15-3-20 3zm575-8c6 4 8 11 8 18l-1 5c-2 2-4 2-6 2h-34v2l1 1c1 4 4 7 8 9s9 3 14 1c3 0 5-2 7-3h5l2 2v5c-6 5-14 7-22 6-7 0-14-4-19-9a29 29 0 0 1 1-37v-1c9-10 26-10 36-1zm-29 7c-2 3-4 6-4 9h32c-1-4-3-8-7-11-6-4-16-3-21 2zm-711-7c5 4 7 11 8 18l-1 5c-2 2-4 2-7 2h-34l1 2v1c2 4 4 7 8 9 5 2 10 3 15 1l6-3h5l2 2h1l-1 5c-6 5-14 7-22 6-7 0-13-4-19-9a29 29 0 0 1 1-37l1-1c9-10 26-10 36-1zm-30 7c-2 3-4 6-4 9h32c-1-4-2-8-6-11-7-4-16-3-22 2zm961-35 3 2v41l1-1 1-1 3-2 4-4 3-3 4-3 3-3 2-2 1-1 5-2 3 2 1 4c0 3-2 4-4 6h-1l-1 2-3 2-4 4-2 1-1 1-1 1-2 1 4 5 1 2 1 1 3 4 4 5 1 1 2 2 1 2h1l2 6-2 3-5 1-4-4-1-2h-1l-3-4-6-8-3-4-1-1-1-1-5 3v14l-1 5-4 1-4-1-1-5v-66l2-4h5zm-275 0 3 2v41l1-1 1-1 3-2 4-4 3-3 4-3 3-3 2-2 1-1 5-2 3 2 1 4c0 3-2 4-4 6h-1l-1 2-3 2-4 4-2 1-1 1-1 1-2 1 4 5 1 2 1 1 3 4 4 5 1 1 2 2 1 2h1l2 6-2 3-5 1-4-4-1-2h-1l-3-4-6-8-3-4-1-1-1-1-5 3v14l-1 5-4 1-4-1-1-5v-66c0-2 0-3 2-4h5zm-212 0 3 2v41l2-1v-1l3-2 5-4 2-3 4-3 3-3 2-2 1-1 5-2 4 2 1 4c-1 3-3 4-5 6h-1l-1 2-3 2-4 4-2 1-1 1-1 1-2 1 4 5 1 2 1 1 3 4 4 5 1 1a102 102 0 0 0 2 2l2 2c2 2 2 4 2 6l-2 3-5 1-4-4-1-2h-1l-3-4-6-8-3-4-1-1-1-1-4 3-1 4v10l-1 5-4 1-3-1c-2-2-2-3-2-5v-66l2-4h5zm638 26c5 4 8 9 9 16l1 9v20l-3 4-4 1c-2 0-3-1-4-3v-24c0-5-1-10-4-13s-7-5-11-5c-5 0-9 2-12 5-3 4-3 7-3 11v23l-1 5-4 1c-2 0-3 0-4-2l-1-5v-40l1-6 6-1 3 3 1 2c9-6 21-7 30-1zm-487 0c5 4 8 9 9 16v27a65 65 0 0 1 0 2c0 2 0 3-2 4l-4 1c-2 0-3-1-4-3v-17l-1-5v-2c0-5 0-10-3-13s-7-5-11-5c-5 0-9 2-12 5-3 4-3 7-3 11v23l-1 5-4 1c-2 0-3 0-4-2-2-1-1-3-1-5v-40l1-6 6-1 3 3v2h1c9-6 21-7 30-1zm-336 0c6 4 9 9 10 16v29l-2 4-5 1-3-3-1-4v-20c0-5 0-10-4-13-3-3-7-5-11-5s-8 2-11 5c-3 4-3 7-3 11v23l-1 5-4 1c-2 0-3 0-5-2l-1-5v-40c0-3 0-4 2-6l6-1 3 3v2h1c8-6 21-7 29-1zm-198 0c5 4 8 9 9 16l1 9v20l-2 4-5 1c-2 0-3-1-4-3v-24c0-5-1-10-4-13s-7-5-11-5c-5 0-9 2-12 5-2 4-3 7-3 11v23l-1 5-4 1c-2 0-3 0-4-2l-1-5v-40c0-3 0-4 2-6l5-1 3 3 1 2c9-6 21-7 30-1zm234-20 2 2v16h9l3 2 1 4-3 3h-10v20c0 4 0 7 3 10v1c2 2 5 2 8 2l3 1 1 5-2 4h-6c-5 0-9-2-12-5s-5-8-5-13v-25h-4c-2 0-3 0-5-2v-3c0-2 1-2 2-3l4-1h3v-13c0-2 0-3 2-5h6zm130 18c2 1 2 1 2 3 1 2 0 3-1 4h-8c-5 0-10 0-14 3-2 3-4 5-4 9v28l-2 5h-4l-3-1-1-4v-43l1-4c1-2 2-2 4-2h1l3 2 1 4h1c6-6 17-9 24-4zm478-2 3 3v45l-1 5-5 1-4-2v-22l-1-7v-16l2-6 6-1zm1-21c1 1 3 2 3 4v6c-1 2-3 2-5 3l-6-1-2-5c0-3 1-5 3-6 2-2 4-2 7-1z" fill="#1b4f88"/><path d="M165 151h1-1z" fill="#f0ab27"/></svg>